<?xml version="1.0" standalone="no"?>
<!DOCTYPE svg PUBLIC "-//W3C//DTD SVG 20010904//EN"
 "http://www.w3.org/TR/2001/REC-SVG-20010904/DTD/svg10.dtd">
<svg  fill="0xFF1F1F1F" version="1.0" xmlns="http://www.w3.org/2000/svg"
 width="925.000000pt" height="705.000000pt" viewBox="0 0 925.000000 705.000000"
 preserveAspectRatio="xMidYMid meet">

<g transform="translate(0.000000,705.000000) scale(0.100000,-0.100000)"
fill="#000000" stroke="none">
<path d="M0 3525 l0 -3525 4625 0 4625 0 0 3525 0 3525 -4625 0 -4625 0 0
-3525z m5030 3021 c386 -28 668 -87 990 -208 752 -281 1403 -808 1875 -1518
193 -291 297 -489 375 -717 44 -126 114 -382 107 -389 -2 -2 -12 26 -22 63
-73 274 -237 648 -390 892 -430 683 -1085 1217 -1898 1545 -335 135 -855 296
-958 296 -18 0 -58 5 -88 11 -31 6 -144 19 -251 29 -187 18 -190 19 -70 15 69
-2 217 -11 330 -19z m-200 -30 c370 -52 687 -140 997 -278 76 -33 201 -86 278
-118 197 -80 317 -138 480 -231 167 -95 222 -135 110 -81 -114 56 -296 134
-301 130 -7 -8 159 -114 252 -162 106 -54 302 -181 389 -251 126 -102 246
-219 400 -393 88 -99 162 -179 164 -177 14 15 -450 561 -546 644 -83 71 -39
45 69 -41 138 -110 371 -345 493 -498 266 -332 466 -693 619 -1111 51 -140
184 -469 196 -484 17 -23 67 -283 92 -485 19 -154 16 -602 -5 -759 -9 -69 -15
-127 -13 -129 7 -6 26 100 47 247 l19 136 -6 -100 c-24 -446 -182 -1011 -397
-1420 -30 -58 -33 -56 -11 8 26 76 10 77 -28 2 -71 -139 -175 -309 -282 -458
-62 -86 -73 -97 -95 -93 -14 2 -32 5 -38 5 -7 1 5 26 28 59 170 241 266 400
370 616 308 644 427 1326 353 2041 -8 77 -18 160 -24 185 -9 44 -9 44 -5 -15
23 -310 26 -438 16 -621 -12 -203 -31 -398 -38 -390 -3 2 1 57 8 122 16 163 6
527 -20 704 -59 400 -172 768 -365 1189 -36 79 -86 176 -111 216 -42 67 -255
345 -255 333 0 -4 27 -51 59 -106 91 -152 273 -511 336 -662 137 -326 226
-652 276 -1005 26 -179 36 -568 20 -755 -10 -117 -50 -390 -66 -446 -3 -11 8
8 24 41 17 33 36 87 43 120 6 33 14 53 15 45 5 -20 -55 -256 -102 -407 -124
-394 -334 -800 -587 -1135 l-59 -78 -107 -1 c-59 -1 -134 -5 -167 -9 l-60 -7
70 -2 c118 -2 114 -21 -5 -21 -58 0 -115 -3 -127 -6 -14 -4 -23 -2 -23 5 0 6
17 12 38 13 20 1 -37 4 -128 8 -91 4 -169 4 -175 1 -5 -3 31 -8 80 -11 50 -3
-54 -6 -230 -6 -176 0 -284 2 -240 6 44 3 76 7 70 8 -5 1 -4 6 3 11 7 4 -72 8
-175 9 -103 0 -292 4 -419 8 -127 3 -240 3 -252 0 -55 -18 -9 -23 156 -18 169
4 379 -4 368 -15 -3 -3 -126 -5 -274 -4 l-270 1 -6 -26 c-4 -15 -5 -28 -3 -30
2 -3 361 -7 798 -10 437 -3 796 -8 798 -10 2 -2 -358 -4 -801 -4 -699 0 -809
-2 -835 -15 -18 -9 -83 -19 -154 -25 -180 -14 -186 -13 -215 15 l-25 25 -1050
0 c-578 1 -1128 -2 -1223 -6 -196 -8 -237 -1 -261 46 -8 16 -15 38 -15 48 0
18 -11 20 -127 26 -94 5 -1025 17 -1238 16 -23 0 -15 -13 -175 285 -285 528
-425 950 -502 1515 -17 128 -17 650 0 790 11 93 44 279 58 335 2 11 -7 -2 -21
-28 -15 -27 -35 -81 -45 -120 -10 -40 -19 -64 -19 -55 -1 24 70 302 109 423
214 670 639 1304 1135 1690 170 133 689 477 807 535 89 45 308 173 304 178 -3
2 -55 -17 -118 -41 -62 -25 -114 -44 -116 -43 -5 5 202 94 328 141 172 65 337
134 319 135 -21 0 -259 -70 -384 -114 -309 -108 -643 -282 -915 -476 -1129
-808 -1723 -2178 -1544 -3562 16 -126 32 -180 21 -73 -22 208 -28 447 -18 623
13 202 31 385 38 378 3 -3 0 -50 -6 -106 -15 -142 -13 -429 4 -595 48 -453
207 -975 429 -1413 59 -114 183 -297 259 -379 l20 -23 -45 0 -46 0 -49 77
c-152 239 -293 528 -391 804 -17 46 -44 118 -62 159 -17 41 -49 120 -71 174
-22 54 -47 112 -55 127 -21 42 -61 237 -86 422 -29 216 -31 644 -4 840 10 71
16 131 13 133 -5 5 -33 -153 -52 -296 l-14 -105 5 100 c20 368 127 816 282
1176 56 130 136 286 127 249 -18 -80 -13 -77 45 25 88 157 124 215 211 345
645 967 1718 1598 2872 1691 183 14 564 7 777 -15 340 -35 440 -48 560 -72
137 -26 135 -26 129 -19 -10 10 -262 78 -390 105 -281 60 -424 74 -764 75
-322 0 -432 -9 -685 -56 -1077 -198 -2051 -869 -2610 -1799 -79 -130 -96 -151
-39 -45 209 387 593 835 974 1136 573 451 1281 737 2005 808 149 15 684 6 820
-13z m3021 -1496 c230 -318 444 -713 536 -990 121 -362 179 -681 187 -1025 2
-99 2 -157 0 -130 -42 538 -139 926 -360 1432 -97 225 -285 571 -414 763 -86
129 -60 103 51 -50z m536 -1342 c-3 -8 -6 -5 -6 6 -1 11 2 17 5 13 3 -3 4 -12
1 -19z m-7690 -520 c-3 -7 -5 -2 -5 12 0 14 2 19 5 13 2 -7 2 -19 0 -25z m-10
-60 c-3 -7 -5 -2 -5 12 0 14 2 19 5 13 2 -7 2 -19 0 -25z m-10 -65 c-3 -10 -5
-2 -5 17 0 19 2 27 5 18 2 -10 2 -26 0 -35z m-157 -753 c46 -531 239 -1127
545 -1687 36 -67 51 -103 42 -103 -18 0 -34 20 -89 110 -203 337 -307 575
-397 910 -72 268 -123 639 -119 874 1 61 3 91 5 66 1 -25 8 -101 13 -170z
m7887 -47 c-3 -10 -5 -2 -5 17 0 19 2 27 5 18 2 -10 2 -26 0 -35z m-10 -55
c-3 -7 -5 -2 -5 12 0 14 2 19 5 13 2 -7 2 -19 0 -25z m-10 -60 c-3 -7 -5 -2
-5 12 0 14 2 19 5 13 2 -7 2 -19 0 -25z m-7690 -500 c-3 -8 -6 -5 -6 6 -1 11
2 17 5 13 3 -3 4 -12 1 -19z m64 -204 c94 -289 226 -577 368 -800 47 -73 74
-124 66 -124 -18 0 -37 28 -139 198 -161 271 -237 450 -321 757 -19 71 -34
137 -34 145 1 9 3 7 6 -5 3 -11 27 -88 54 -171z m7268 -731 c-33 -61 -125
-208 -146 -232 -1 -2 -5 -2 -8 1 -4 3 14 34 38 69 24 35 68 103 97 152 29 48
55 87 57 87 3 0 -14 -35 -38 -77z m-6899 -213 c0 -5 -4 -10 -9 -10 -6 0 -13 5
-16 10 -3 6 1 10 9 10 9 0 16 -4 16 -10z m90 0 c0 -5 -4 -10 -9 -10 -6 0 -13
5 -16 10 -3 6 1 10 9 10 9 0 16 -4 16 -10z m179 -12 c11 -10 13 -10 7 0 -5 9
8 12 56 10 l63 -1 -50 -8 c-29 -4 12 -5 95 -2 277 9 594 11 610 3 8 -4 96 -4
195 1 186 8 267 -3 103 -15 -143 -10 -604 -21 -892 -21 -257 0 -259 0 -273 23
-15 22 -15 22 29 22 24 0 50 -6 57 -12z m1314 -5 c-24 -2 -62 -2 -85 0 -24 2
-5 4 42 4 47 0 66 -2 43 -4z m-1463 -18 c10 -12 9 -15 -8 -15 -11 0 -22 7 -26
15 -3 9 0 15 8 15 7 0 19 -7 26 -15z m-90 -5 c0 -5 -6 -10 -14 -10 -8 0 -18 5
-21 10 -3 6 3 10 14 10 12 0 21 -4 21 -10z m6435 0 c-3 -5 -19 -10 -36 -10
-16 0 -29 5 -29 10 0 6 16 10 36 10 21 0 33 -4 29 -10z m-4938 -10 c-54 -4
-160 -4 -235 0 -127 6 -120 7 98 7 184 0 214 -2 137 -7z m-645 -57 c-40 -2
-103 -2 -140 0 -37 2 -4 3 73 3 77 0 107 -2 67 -3z"/>
<path d="M4375 6301 l-60 -6 100 -7 c153 -12 477 -9 440 4 -35 12 -393 19
-480 9z"/>
<path d="M3720 6180 c-24 -8 -24 -8 5 -8 17 0 41 4 55 8 24 8 24 8 -5 8 -16 0
-41 -4 -55 -8z"/>
<path d="M5760 6148 c23 -21 538 -223 547 -214 1 1 -39 26 -89 56 -68 40 -129
66 -242 101 -148 45 -226 66 -216 57z"/>
<path d="M5111 6004 c-81 -17 -187 -67 -299 -140 -119 -78 -177 -104 -234
-104 -27 0 -48 -4 -48 -10 0 -18 118 -11 177 10 31 11 97 45 147 77 112 71
186 101 276 112 101 13 227 -7 287 -46 12 -8 36 -37 54 -65 l32 -50 18 33 c21
41 33 101 24 128 -18 57 -275 90 -434 55z"/>
<path d="M4123 5966 c-34 -13 -74 -31 -87 -40 -31 -20 -36 -20 -36 -1 0 17
-124 -75 -143 -107 -7 -10 -17 -18 -23 -18 -6 0 -22 -31 -35 -70 -13 -38 -26
-70 -29 -70 -14 0 13 -159 36 -208 l24 -54 42 36 c57 47 198 152 274 203 61
42 215 116 267 128 15 4 27 13 27 21 0 8 9 14 20 14 31 0 24 11 -41 64 -48 39
-57 51 -48 62 18 22 7 26 -70 27 -64 1 -70 3 -65 19 8 25 -34 23 -113 -6z"/>
<path d="M4960 5748 c-95 -25 -135 -31 -232 -32 -65 0 -118 -3 -118 -7 0 -11
75 -30 145 -36 60 -5 87 -1 181 26 123 35 147 37 221 17 93 -25 181 -97 206
-171 l14 -39 25 43 26 44 -29 48 c-35 56 -89 106 -135 125 -56 24 -175 17
-304 -18z"/>
<path d="M4410 5746 c-36 -13 -103 -42 -150 -66 -101 -50 -381 -253 -405 -293
-15 -26 -15 -30 -1 -52 19 -29 29 -31 46 -9 63 75 516 377 586 390 38 7 38 7
24 35 -13 23 -19 23 -100 -5z"/>
<path d="M4428 5670 c-31 -16 -95 -54 -143 -85 l-87 -56 39 -42 c21 -23 49
-55 61 -72 l23 -30 -5 30 c-4 17 -9 44 -12 61 -8 43 25 79 64 70 40 -10 81
-60 88 -107 8 -50 49 -79 109 -78 75 2 87 9 89 56 2 36 -2 45 -27 63 -35 27
-60 83 -53 119 5 20 -2 34 -29 64 -20 20 -41 37 -49 37 -7 0 -38 -13 -68 -30z"/>
<path d="M4335 5517 c-14 -11 -16 -21 -11 -53 7 -35 9 -37 21 -20 33 44 79
-10 69 -81 -4 -28 -2 -43 5 -43 16 0 24 44 19 102 -4 42 -11 57 -37 80 -36 32
-40 33 -66 15z"/>
<path d="M4123 5477 c-92 -65 -212 -161 -213 -170 0 -4 20 -29 44 -55 41 -44
58 -79 71 -144 4 -23 11 -28 35 -28 20 0 33 -7 41 -22 11 -22 28 -38 39 -38 4
0 4 15 2 34 -4 30 3 42 54 99 50 55 64 65 93 66 19 1 42 8 52 17 16 15 20 15
50 0 18 -9 37 -16 44 -16 6 0 22 -21 35 -47 l25 -48 3 35 c3 30 -8 104 -24
163 -3 9 -1 17 4 17 31 0 53 -247 29 -332 -8 -32 -6 -42 16 -80 31 -52 190
-223 264 -284 70 -56 87 -57 101 -1 15 58 57 109 117 144 47 27 50 31 60 88 6
33 18 74 27 90 23 43 95 121 103 113 5 -4 -10 -27 -33 -52 -49 -53 -68 -89
-77 -141 -3 -22 -8 -50 -11 -62 -2 -13 -25 -33 -59 -52 -62 -35 -101 -87 -110
-146 -6 -38 -4 -41 26 -55 19 -9 40 -30 50 -50 21 -42 35 -140 21 -140 -5 0
-13 25 -17 54 -9 79 -38 115 -107 138 -39 13 -80 39 -132 84 l-76 65 -28 -26
c-15 -15 -47 -37 -72 -50 -25 -13 -58 -37 -73 -53 l-28 -30 47 -113 c61 -147
100 -200 184 -254 37 -24 77 -56 89 -71 30 -39 71 -64 102 -64 36 0 93 41 205
145 118 111 157 163 198 268 40 100 58 136 101 196 58 82 78 131 83 207 3 42
-1 86 -8 108 -22 67 -88 126 -141 126 -12 0 -62 18 -113 41 -70 31 -119 45
-215 60 -68 11 -126 18 -128 15 -7 -6 73 -46 92 -46 8 0 15 -4 15 -10 0 -42
-160 53 -281 167 -24 22 -30 24 -65 14 -53 -15 -104 -13 -134 4 -34 20 -37 19
-43 -14 -6 -31 -27 -44 -53 -34 -13 5 -15 15 -11 47 5 38 5 39 -9 21 -13 -17
-16 -18 -24 -5 -5 8 -10 22 -10 30 -1 8 -7 0 -15 -17 -8 -18 -18 -33 -22 -33
-4 0 -16 17 -26 38 -9 20 -37 58 -61 84 l-43 47 -60 -42z m757 -334 c-1 -16
-62 -75 -117 -114 -56 -39 -83 -48 -83 -29 0 6 5 10 11 10 19 0 128 80 151
110 21 28 38 39 38 23z m215 -23 c-3 -5 -11 -10 -18 -10 -6 0 -40 -19 -76 -43
-72 -48 -91 -56 -198 -87 -60 -17 -83 -30 -132 -75 -32 -30 -62 -55 -66 -55
-15 0 79 102 108 117 17 8 72 28 121 44 54 17 120 47 161 74 64 41 115 59 100
35z m130 -455 c10 -87 1 -124 -40 -172 -38 -45 -128 -107 -146 -101 -7 2 10
18 37 36 116 75 139 114 130 224 -8 95 9 107 19 13z"/>
<path d="M4360 5427 c0 -19 10 -27 25 -20 17 6 8 33 -11 33 -8 0 -14 -6 -14
-13z"/>
<path d="M4349 5214 c-6 -8 -9 -17 -6 -20 8 -8 47 5 47 16 0 15 -29 19 -41 4z"/>
<path d="M4266 5195 c-16 -17 -11 -45 8 -45 6 1 22 7 34 14 22 12 23 14 7 29
-20 21 -29 21 -49 2z"/>
<path d="M4322 5149 c-55 -27 -112 -64 -128 -81 -28 -30 -28 -30 -4 -18 14 7
37 22 51 32 14 11 64 35 110 53 48 19 85 41 87 50 5 23 -9 19 -116 -36z"/>
<path d="M4218 5149 c-18 -10 -25 -39 -10 -39 4 0 16 7 26 15 24 18 10 39 -16
24z"/>
<path d="M4365 5122 c-55 -22 -169 -85 -194 -108 -2 -2 2 -17 9 -33 l12 -30
71 51 c87 62 179 129 192 140 18 16 -21 7 -90 -20z"/>
<path d="M4345 5039 c-123 -89 -142 -106 -132 -115 3 -4 24 9 46 29 22 20 73
53 113 73 81 40 108 60 108 81 0 24 -25 12 -135 -68z"/>
<path d="M4165 5089 c-11 -17 1 -21 15 -4 8 9 8 15 2 15 -6 0 -14 -5 -17 -11z"/>
<path d="M4443 5045 c-29 -16 -78 -45 -110 -63 -55 -31 -101 -77 -90 -88 10
-10 237 108 248 128 6 10 9 27 7 36 -3 15 -10 14 -55 -13z"/>
<path d="M3215 5040 c-3 -5 -2 -10 4 -10 5 0 13 5 16 10 3 6 2 10 -4 10 -5 0
-13 -4 -16 -10z"/>
<path d="M4018 5030 c-105 -32 -195 -125 -262 -274 l-36 -79 40 6 c45 6 55 -9
13 -18 -92 -19 -108 -28 -174 -98 -53 -55 -66 -74 -59 -88 16 -28 28 -99 19
-104 -5 -3 -11 7 -14 22 -9 46 -38 94 -67 111 -25 15 -27 15 -52 -15 -27 -32
-136 -106 -181 -123 -32 -12 -31 -16 4 -72 50 -79 168 -195 216 -214 76 -29
121 -7 195 95 57 78 95 110 172 144 69 31 125 80 144 126 8 20 22 42 32 50 12
9 13 15 5 18 -40 15 -81 56 -111 111 -18 34 -29 62 -23 62 6 0 19 -17 30 -39
35 -67 67 -97 133 -122 44 -16 77 -37 109 -70 49 -50 92 -126 82 -142 -3 -6
-15 10 -27 34 -25 55 -117 149 -145 149 -12 0 -21 -2 -21 -4 0 -8 121 -200
137 -218 8 -9 21 -14 29 -11 25 10 27 -48 5 -169 -12 -65 -33 -144 -46 -174
-14 -31 -25 -61 -25 -66 0 -5 51 -8 123 -6 67 2 172 -1 232 -5 l110 -8 -9 100
-9 101 -66 0 c-49 0 -75 5 -99 20 -18 11 -37 18 -42 15 -4 -3 -13 -27 -20 -54
-13 -57 0 -95 47 -129 15 -11 25 -23 21 -27 -11 -11 -86 65 -93 94 -3 15 2 53
13 89 19 61 19 61 0 79 -19 17 -21 17 -44 -12 -36 -45 -40 -22 -4 30 32 47 72
76 148 109 85 38 32 43 -102 9 -59 -14 -106 -11 -106 7 0 6 11 8 23 5 13 -4
52 1 86 10 33 8 93 17 131 18 38 1 70 5 70 8 0 23 -108 266 -182 404 -78 148
-102 168 -196 163 -60 -3 -79 3 -46 16 9 3 29 6 45 6 32 0 37 11 14 30 -8 7
-15 19 -15 26 0 8 -18 26 -40 40 -22 15 -40 31 -40 35 0 11 -35 10 -72 -1z"/>
<path d="M3241 5019 c-13 -5 -22 -12 -19 -14 8 -8 68 7 68 16 0 11 -18 10 -49
-2z"/>
<path d="M3144 5005 c-10 -8 -14 -15 -7 -15 19 0 43 11 43 21 0 13 -14 11 -36
-6z"/>
<path d="M3164 4976 c-10 -8 -15 -18 -11 -22 4 -4 17 2 30 14 24 25 12 30 -19
8z"/>
<path d="M3244 4984 c-8 -3 -7 -19 2 -56 16 -60 16 -60 38 -52 16 6 16 8 -1
26 -9 10 -17 35 -17 53 0 35 -2 37 -22 29z"/>
<path d="M3076 4961 c-26 -29 -2 -34 24 -6 18 19 20 25 8 25 -8 0 -23 -9 -32
-19z"/>
<path d="M4450 4964 c-14 -7 -55 -26 -92 -43 -38 -16 -68 -35 -68 -41 0 -15
28 -24 43 -13 6 5 32 17 57 27 54 20 93 50 88 69 -2 11 -8 11 -28 1z"/>
<path d="M3187 4944 c-23 -30 -18 -37 17 -28 29 7 31 13 14 37 -12 14 -15 14
-31 -9z"/>
<path d="M3280 4959 c0 -15 21 -53 34 -61 6 -4 28 -8 49 -8 34 0 37 2 37 28 0
25 -5 29 -45 40 -56 15 -75 15 -75 1z"/>
<path d="M3108 4939 c-18 -10 -25 -39 -10 -39 13 1 42 27 42 39 0 13 -9 14
-32 0z"/>
<path d="M4471 4916 c-7 -8 -41 -26 -76 -42 -60 -25 -79 -44 -56 -58 15 -9
171 77 169 93 -4 20 -23 24 -37 7z"/>
<path d="M3030 4901 c-5 -11 -10 -28 -10 -38 1 -14 5 -12 25 11 23 28 25 46 5
46 -5 0 -14 -9 -20 -19z"/>
<path d="M3114 4889 c-8 -14 27 -79 43 -79 14 0 16 13 7 59 -7 31 -35 43 -50
20z"/>
<path d="M3192 4888 c-6 -7 -8 -25 -5 -40 4 -23 11 -28 34 -28 31 0 36 12 19
54 -10 28 -31 34 -48 14z"/>
<path d="M3054 4855 c-16 -25 -12 -45 10 -45 15 0 35 40 29 58 -7 19 -21 14
-39 -13z"/>
<path d="M4472 4855 c-58 -27 -112 -62 -112 -73 0 -4 4 -13 9 -21 7 -10 18 -4
47 29 22 24 58 52 82 62 39 18 52 28 35 28 -5 0 -32 -11 -61 -25z"/>
<path d="M3327 4849 c-7 -26 3 -89 14 -89 8 0 59 91 59 105 0 3 -15 5 -34 5
-26 0 -35 -5 -39 -21z"/>
<path d="M3278 4835 c-8 -18 -26 -29 -64 -40 -46 -13 -121 -61 -111 -71 2 -2
21 5 42 16 27 14 59 20 102 20 l62 0 -2 50 c-2 55 -11 63 -29 25z"/>
<path d="M4493 4829 c-46 -22 -85 -59 -48 -45 11 4 44 17 72 28 29 11 50 25
47 29 -8 14 -25 11 -71 -12z"/>
<path d="M3096 4814 c-10 -26 -7 -34 14 -34 11 0 20 4 20 9 0 17 -12 41 -20
41 -4 0 -11 -7 -14 -16z"/>
<path d="M3030 4801 c0 -5 5 -13 10 -16 6 -3 10 -2 10 4 0 5 -4 13 -10 16 -5
3 -10 2 -10 -4z"/>
<path d="M4503 4787 c-64 -27 -103 -60 -103 -87 0 -27 12 -25 41 6 13 14 48
42 77 61 75 50 70 56 -15 20z"/>
<path d="M7531 4773 c13 -21 55 -85 95 -143 337 -495 535 -1024 611 -1630 23
-189 23 -594 -1 -789 -9 -79 -15 -145 -13 -147 8 -9 38 248 49 425 29 470 -56
1000 -229 1441 -118 299 -276 572 -466 808 -64 79 -81 92 -46 35z"/>
<path d="M4523 4748 c-82 -58 -93 -77 -15 -24 28 19 65 37 81 41 20 4 28 11
24 21 -7 20 -10 19 -90 -38z"/>
<path d="M3050 4757 c0 -7 5 -18 12 -25 9 -9 14 -7 24 6 19 25 17 32 -11 32
-14 0 -25 -6 -25 -13z"/>
<path d="M4595 4747 c-57 -19 -191 -117 -160 -117 5 0 162 95 194 117 13 9 -8
9 -34 0z"/>
<path d="M3175 4733 c-26 -7 -75 -42 -75 -54 0 -14 65 -11 96 6 33 17 68 19
94 5 14 -8 19 -5 23 12 4 12 4 25 1 30 -5 8 -105 9 -139 1z"/>
<path d="M4548 4674 c-54 -35 -98 -68 -98 -74 0 -16 15 -12 35 10 11 12 45 35
76 52 55 28 97 64 88 72 -2 2 -48 -25 -101 -60z"/>
<path d="M3196 4665 c-11 -8 -33 -15 -49 -15 -22 0 -28 -4 -23 -16 3 -9 6 -18
6 -20 0 -10 22 -1 76 31 45 28 53 35 33 35 -13 0 -33 -7 -43 -15z"/>
<path d="M5390 4629 c-16 -22 -45 -83 -65 -134 -20 -51 -49 -113 -64 -137 -56
-88 -280 -294 -341 -313 -16 -5 -20 -15 -20 -56 0 -44 -4 -55 -39 -92 -22 -23
-43 -38 -47 -34 -4 4 9 24 29 45 32 32 37 44 37 84 0 41 -3 47 -29 58 -24 10
-41 8 -100 -8 -45 -13 -85 -18 -108 -15 l-36 6 7 -87 c4 -48 9 -93 12 -100 3
-7 51 -20 117 -30 61 -10 160 -33 220 -52 112 -35 203 -44 225 -22 7 7 12 30
12 53 0 58 34 214 59 270 12 26 21 49 21 51 0 2 -27 -16 -59 -41 -59 -45 -105
-92 -114 -117 -2 -7 -8 -9 -13 -5 -14 13 20 59 77 105 203 162 217 187 235
406 7 83 15 163 18 179 7 37 1 34 -34 -14z"/>
<path d="M3235 4640 c-64 -33 -89 -55 -79 -72 7 -12 23 -5 89 39 62 42 74 53
55 53 -14 0 -43 -9 -65 -20z"/>
<path d="M3259 4595 c-94 -61 -92 -68 6 -21 47 23 85 47 85 54 0 20 -22 13
-91 -33z"/>
<path d="M1298 4482 c-87 -153 -159 -299 -213 -431 -49 -121 -115 -307 -115
-324 1 -7 25 53 54 133 90 248 190 463 309 663 22 37 38 70 36 72 -3 2 -34
-49 -71 -113z"/>
<path d="M3277 4561 c-90 -44 -100 -52 -91 -74 5 -13 20 -6 87 40 128 88 129
95 4 34z"/>
<path d="M3305 4529 c-110 -76 -142 -119 -57 -75 69 36 146 90 144 101 -2 22
-31 14 -87 -26z"/>
<path d="M3386 4516 c-15 -13 -61 -41 -102 -62 -51 -27 -74 -45 -74 -58 0 -22
10 -19 95 29 59 33 125 89 125 106 0 14 -13 10 -44 -15z"/>
<path d="M4457 4240 c-124 -66 -126 -69 -85 -111 58 -60 77 -69 149 -69 l66 0
-8 48 c-15 94 -17 143 -5 139 6 -2 14 -40 19 -87 8 -92 15 -105 55 -113 22 -5
136 17 151 29 10 8 -46 61 -104 99 -35 23 -76 56 -89 73 -14 16 -34 32 -43 34
-10 2 -58 -17 -106 -42z"/>
<path d="M4198 3833 c-75 -4 -78 -5 -94 -34 -15 -29 -14 -30 3 -25 140 42 302
33 676 -40 198 -38 377 -55 377 -36 0 7 -18 12 -44 12 -24 0 -93 15 -153 34
-59 18 -151 41 -203 50 -113 19 -398 47 -449 44 -20 -1 -71 -4 -113 -5z"/>
<path d="M4151 3764 c-30 -8 -60 -19 -66 -24 -7 -6 -15 -39 -18 -75 -8 -88
-28 -129 -137 -275 -101 -137 -126 -182 -159 -281 -28 -85 -72 -154 -110 -174
-47 -24 -40 -45 13 -45 68 0 168 -35 331 -115 168 -84 252 -144 296 -213 52
-81 49 -111 -10 -112 -42 0 -15 -11 29 -12 36 0 48 5 87 43 25 24 67 76 94
114 26 39 57 81 68 95 11 14 21 35 21 47 0 13 -26 85 -58 160 -32 76 -71 168
-86 205 -16 37 -43 93 -62 124 -37 62 -38 64 -25 64 18 0 80 -116 142 -265 34
-83 72 -175 85 -205 15 -36 25 -86 29 -145 13 -181 48 -320 88 -354 15 -12 17
-11 17 3 0 31 56 48 134 41 60 -6 577 -24 583 -21 1 1 -2 89 -7 196 -9 191
-25 287 -55 334 -7 11 -21 48 -30 81 -10 33 -30 98 -46 145 -15 47 -33 119
-39 160 -22 148 -42 245 -62 294 -11 28 -24 65 -27 81 l-7 30 -100 7 c-55 4
-181 23 -279 42 -347 67 -521 81 -634 50z"/>
<path d="M956 3684 c-4 -14 -5 -28 -3 -31 3 -2 8 8 11 23 4 14 5 28 3 31 -3 2
-8 -8 -11 -23z"/>
<path d="M936 3614 c-4 -14 -5 -28 -3 -31 3 -2 8 8 11 23 4 14 5 28 3 31 -3 2
-8 -8 -11 -23z"/>
<path d="M8421 3384 c0 -11 3 -14 6 -6 3 7 2 16 -1 19 -3 4 -6 -2 -5 -13z"/>
<path d="M842 3130 c0 -14 2 -19 5 -12 2 6 2 18 0 25 -3 6 -5 1 -5 -13z"/>
<path d="M822 2983 c-20 -189 -24 -373 -13 -548 31 -478 134 -882 327 -1283
105 -219 206 -383 345 -557 85 -107 79 -101 79 -88 0 6 -38 67 -84 135 -298
439 -478 855 -580 1343 -61 294 -86 623 -67 910 6 103 10 190 8 192 -3 2 -9
-45 -15 -104z"/>
<path d="M3608 2808 c-19 -35 -59 -102 -89 -150 -30 -48 -70 -112 -89 -144
-19 -31 -52 -84 -73 -118 l-39 -61 5 -88 c5 -104 17 -124 62 -107 16 6 34 18
41 28 7 9 16 14 20 10 21 -21 -76 -75 -111 -62 -9 4 -16 -10 -24 -48 -70 -366
-68 -345 -49 -580 23 -292 -35 -587 -154 -785 -34 -56 -157 -186 -200 -209
-12 -7 -38 -13 -55 -14 -28 0 -33 -4 -33 -23 0 -46 27 -57 141 -57 159 0 195
14 267 103 89 108 144 154 238 197 103 48 115 66 90 137 -30 83 -38 136 -32
207 8 89 42 223 79 311 69 166 77 195 77 295 0 52 -7 147 -16 210 -19 130 -15
160 37 266 41 83 77 117 189 176 134 72 177 102 279 201 l89 86 -37 34 c-105
95 -438 247 -540 247 -35 0 -39 -3 -73 -62z"/>
<path d="M4219 2522 l-54 -52 78 0 c87 0 90 3 53 64 l-24 40 -53 -52z"/>
<path d="M4758 2339 c-10 -5 -18 -16 -18 -24 0 -15 67 -48 120 -60 l32 -7 -27
51 c-25 45 -32 51 -59 51 -17 0 -39 -5 -48 -11z"/>
<path d="M4870 2337 c0 -5 13 -34 30 -65 16 -31 65 -132 109 -223 77 -159 84
-169 150 -228 60 -54 73 -61 90 -51 21 11 41 66 41 113 0 15 5 27 10 27 25 0
1 -112 -31 -146 -26 -28 -42 -30 -63 -8 -15 14 -16 12 -16 -23 1 -21 8 -56 16
-78 48 -130 111 -345 155 -527 l50 -208 -3 -178 c-3 -157 -6 -184 -28 -240
-19 -51 -21 -70 -14 -100 l9 -37 90 2 c135 3 213 13 230 30 26 25 19 124 -14
206 -54 136 -58 220 -35 690 5 105 3 139 -11 190 -18 63 -67 169 -111 239 -42
67 -101 191 -117 248 -12 41 -47 307 -47 355 0 3 -73 5 -162 6 -90 0 -200 4
-245 7 -46 4 -83 4 -83 -1z"/>
<path d="M5380 2305 c0 -8 4 -15 9 -15 5 0 14 7 21 15 10 13 9 15 -9 15 -12 0
-21 -6 -21 -15z"/>
<path d="M8211 2024 c0 -11 3 -14 6 -6 3 7 2 16 -1 19 -3 4 -6 -2 -5 -13z"/>
<path d="M651 1914 c0 -11 3 -14 6 -6 3 7 2 16 -1 19 -3 4 -6 -2 -5 -13z"/>
<path d="M8126 1664 c-4 -14 -5 -28 -3 -31 3 -2 8 8 11 23 4 14 5 28 3 31 -3
2 -8 -8 -11 -23z"/>
<path d="M8106 1594 c-4 -14 -5 -28 -3 -31 3 -2 8 8 11 23 4 14 5 28 3 31 -3
2 -8 -8 -11 -23z"/>
<path d="M8064 1468 c-63 -192 -200 -488 -308 -672 -26 -43 -45 -80 -43 -83
15 -14 235 414 301 585 50 128 88 243 83 249 -3 2 -17 -33 -33 -79z"/>
<path d="M3449 476 c-2 -2 -42 -5 -89 -7 -95 -3 -110 -6 -110 -23 0 -6 -16
-22 -34 -36 -19 -14 -33 -27 -31 -30 2 -3 99 -2 217 1 117 4 597 4 1067 2 790
-4 853 -3 847 12 -3 9 -6 25 -6 36 0 19 -9 19 -392 15 -216 -2 -442 -8 -503
-14 -111 -11 -183 -6 -120 9 17 4 62 8 100 10 l70 3 -75 6 c-41 4 88 5 288 2
223 -3 362 -2 362 4 0 6 -160 11 -402 12 -397 2 -405 2 -523 -23 -115 -24
-132 -25 -489 -25 -203 0 -367 2 -365 4 2 2 170 6 372 9 203 3 370 7 373 10 2
2 -37 7 -88 11 -51 3 -104 9 -118 11 -22 5 -22 4 -5 -4 13 -6 -34 -9 -145 -9
-121 1 -146 3 -95 8 l70 6 -86 2 c-47 1 -88 0 -90 -2z"/>
<path d="M3643 473 c9 -2 23 -2 30 0 6 3 -1 5 -18 5 -16 0 -22 -2 -12 -5z"/>
<path d="M5188 463 c6 -2 18 -2 25 0 6 3 1 5 -13 5 -14 0 -19 -2 -12 -5z"/>
</g>
</svg>
